<svg width="63" height="70" viewBox="0 0 63 70" fill="none" xmlns="http://www.w3.org/2000/svg">
<path d="M56 7H54.5C53.3954 7 52.5 6.10457 52.5 5V2C52.5 0.89543 51.6046 0 50.5 0H47.5C46.3954 0 45.5 0.895431 45.5 2V5C45.5 6.10457 44.6046 7 43.5 7H19.5C18.3954 7 17.5 6.10457 17.5 5V2C17.5 0.89543 16.6046 0 15.5 0H12.5C11.3954 0 10.5 0.895431 10.5 2V5C10.5 6.10457 9.60457 7 8.5 7H7C3.115 7 0.035 10.15 0.035 14L0 63C0 66.85 3.115 70 7 70H56C59.85 70 63 66.85 63 63V14C63 10.15 59.85 7 56 7ZM56 61C56 62.1046 55.1046 63 54 63H9C7.89543 63 7 62.1046 7 61V26.5C7 25.3954 7.89543 24.5 9 24.5H54C55.1046 24.5 56 25.3954 56 26.5V61Z" fill="#2ADB91"/>
<path d="M24.576 40.56C26.432 40.944 27.8507 41.712 28.832 42.864C29.8347 43.9947 30.336 45.3707 30.336 46.992C30.336 48.3147 29.9733 49.5413 29.248 50.672C28.544 51.8027 27.456 52.72 25.984 53.424C24.5333 54.1067 22.7307 54.448 20.576 54.448C18.9973 54.448 17.4293 54.256 15.872 53.872C14.336 53.488 13.0027 52.944 11.872 52.24L14.176 47.472C15.0507 48.0693 16.032 48.528 17.12 48.848C18.2293 49.168 19.3173 49.328 20.384 49.328C21.472 49.328 22.336 49.1253 22.976 48.72C23.616 48.3147 23.936 47.7387 23.936 46.992C23.936 45.5413 22.7947 44.816 20.512 44.816H17.856V40.816L21.856 36.496H13.024V31.6H29.216V35.568L24.576 40.56ZM40.3373 54.448C38.4173 54.448 36.7106 53.9893 35.2173 53.072C33.7239 52.1547 32.5506 50.8213 31.6973 49.072C30.8653 47.3013 30.4492 45.2107 30.4492 42.8C30.4492 40.3893 30.8653 38.3093 31.6973 36.56C32.5506 34.7893 33.7239 33.4453 35.2173 32.528C36.7106 31.6107 38.4173 31.152 40.3373 31.152C42.2359 31.152 43.9319 31.6107 45.4253 32.528C46.9186 33.4453 48.0813 34.7893 48.9132 36.56C49.7666 38.3093 50.1933 40.3893 50.1933 42.8C50.1933 45.2107 49.7666 47.3013 48.9132 49.072C48.0813 50.8213 46.9186 52.1547 45.4253 53.072C43.9319 53.9893 42.2359 54.448 40.3373 54.448ZM40.3373 49.264C41.4039 49.264 42.2466 48.752 42.8653 47.728C43.5053 46.6827 43.8253 45.04 43.8253 42.8C43.8253 40.56 43.5053 38.928 42.8653 37.904C42.2466 36.8587 41.4039 36.336 40.3373 36.336C39.2493 36.336 38.3853 36.8587 37.7453 37.904C37.1266 38.928 36.8173 40.56 36.8173 42.8C36.8173 45.04 37.1266 46.6827 37.7453 47.728C38.3853 48.752 39.2493 49.264 40.3373 49.264Z" fill="#2ADB86"/>
</svg>
