<svg width="63" height="70" viewBox="0 0 63 70" fill="none" xmlns="http://www.w3.org/2000/svg">
<path d="M56 7H54.5C53.3954 7 52.5 6.10457 52.5 5V2C52.5 0.89543 51.6046 0 50.5 0H47.5C46.3954 0 45.5 0.895431 45.5 2V5C45.5 6.10457 44.6046 7 43.5 7H19.5C18.3954 7 17.5 6.10457 17.5 5V2C17.5 0.89543 16.6046 0 15.5 0H12.5C11.3954 0 10.5 0.895431 10.5 2V5C10.5 6.10457 9.60457 7 8.5 7H7C3.115 7 0.035 10.15 0.035 14L0 63C0 66.85 3.115 70 7 70H56C59.85 70 63 66.85 63 63V14C63 10.15 59.85 7 56 7ZM56 61C56 62.1046 55.1046 63 54 63H9C7.89543 63 7 62.1046 7 61V26.5C7 25.3954 7.89543 24.5 9 24.5H54C55.1046 24.5 56 25.3954 56 26.5V61Z" fill="#2ADB91"/>
<path d="M35.688 31.6V54H29.352V36.496H25.192V31.6H35.688Z" fill="#2ADB86"/>
</svg>
