<svg width="63" height="70" viewBox="0 0 63 70" fill="none" xmlns="http://www.w3.org/2000/svg">
<path d="M56 7H54.5C53.3954 7 52.5 6.10457 52.5 5V2C52.5 0.89543 51.6046 0 50.5 0H47.5C46.3954 0 45.5 0.895431 45.5 2V5C45.5 6.10457 44.6046 7 43.5 7H19.5C18.3954 7 17.5 6.10457 17.5 5V2C17.5 0.89543 16.6046 0 15.5 0H12.5C11.3954 0 10.5 0.895431 10.5 2V5C10.5 6.10457 9.60457 7 8.5 7H7C3.115 7 0.035 10.15 0.035 14L0 63C0 66.85 3.115 70 7 70H56C59.85 70 63 66.85 63 63V14C63 10.15 59.85 7 56 7ZM56 61C56 62.1046 55.1046 63 54 63H9C7.89543 63 7 62.1046 7 61V26.5C7 25.3954 7.89543 24.5 9 24.5H54C55.1046 24.5 56 25.3954 56 26.5V61Z" fill="#2ADB91"/>
<path d="M19.825 42.5C21.275 42.8 22.3833 43.4 23.15 44.3C23.9333 45.1833 24.325 46.2583 24.325 47.525C24.325 48.5583 24.0417 49.5167 23.475 50.4C22.925 51.2833 22.075 52 20.925 52.55C19.7917 53.0833 18.3833 53.35 16.7 53.35C15.4667 53.35 14.2417 53.2 13.025 52.9C11.825 52.6 10.7833 52.175 9.9 51.625L11.7 47.9C12.3833 48.3667 13.15 48.725 14 48.975C14.8667 49.225 15.7167 49.35 16.55 49.35C17.4 49.35 18.075 49.1917 18.575 48.875C19.075 48.5583 19.325 48.1083 19.325 47.525C19.325 46.3917 18.4333 45.825 16.65 45.825H14.575V42.7L17.7 39.325H10.8V35.5H23.45V38.6L19.825 42.5ZM33.3635 41.85C34.4635 41.85 35.4718 42.0833 36.3885 42.55C37.3051 43 38.0301 43.65 38.5635 44.5C39.1135 45.3333 39.3885 46.2917 39.3885 47.375C39.3885 48.5583 39.0801 49.6083 38.4635 50.525C37.8635 51.425 37.0385 52.125 35.9885 52.625C34.9551 53.1083 33.7968 53.35 32.5135 53.35C30.0135 53.35 28.0385 52.6083 26.5885 51.125C25.1385 49.6417 24.4135 47.5083 24.4135 44.725C24.4135 42.725 24.7968 41.0083 25.5635 39.575C26.3468 38.125 27.4385 37.025 28.8385 36.275C30.2385 35.525 31.8635 35.15 33.7135 35.15C34.7135 35.15 35.6635 35.2583 36.5635 35.475C37.4635 35.6917 38.2301 36.0083 38.8635 36.425L37.0635 39.975C36.2135 39.375 35.1385 39.075 33.8385 39.075C32.5718 39.075 31.5468 39.425 30.7635 40.125C29.9801 40.825 29.5301 41.8333 29.4135 43.15C30.4135 42.2833 31.7301 41.85 33.3635 41.85ZM32.2135 49.825C32.9135 49.825 33.4801 49.625 33.9135 49.225C34.3635 48.825 34.5885 48.2833 34.5885 47.6C34.5885 46.9333 34.3635 46.4 33.9135 46C33.4801 45.6 32.9051 45.4 32.1885 45.4C31.4718 45.4 30.8885 45.6083 30.4385 46.025C29.9885 46.425 29.7635 46.9583 29.7635 47.625C29.7635 48.275 29.9801 48.8083 30.4135 49.225C30.8635 49.625 31.4635 49.825 32.2135 49.825ZM45.6988 41.875C48.1488 41.875 49.9572 42.375 51.1238 43.375C52.3072 44.375 52.8988 45.7083 52.8988 47.375C52.8988 48.4583 52.6155 49.4583 52.0488 50.375C51.4988 51.275 50.6488 52 49.4988 52.55C48.3655 53.0833 46.9572 53.35 45.2738 53.35C44.0405 53.35 42.8155 53.2 41.5988 52.9C40.3988 52.6 39.3655 52.175 38.4988 51.625L40.2738 47.9C40.9738 48.3667 41.7405 48.725 42.5738 48.975C43.4238 49.225 44.2738 49.35 45.1238 49.35C45.9738 49.35 46.6488 49.1917 47.1488 48.875C47.6655 48.5417 47.9238 48.0833 47.9238 47.5C47.9238 46.9167 47.6738 46.475 47.1738 46.175C46.6738 45.875 45.7905 45.725 44.5238 45.725H39.7738L40.6488 35.5H51.7988V39.325H44.7488L44.5238 41.875H45.6988Z" fill="#2ADB86"/>
</svg>
